<svg version="1.1" id="Layer_1" xmlns="http://www.w3.org/2000/svg" xmlns:xlink="http://www.w3.org/1999/xlink" x="0px" y="0px"
	 width="100%" viewBox="0 0 512 512" enable-background="new 0 0 512 512" xml:space="preserve">
<path fill="#111827" opacity="1.000000" stroke="none" 
	d="
M257.000000,1.000000 
	C342.315308,1.000000 427.630615,1.000000 512.972961,1.000000 
	C512.972961,171.612610 512.972961,342.225220 512.972961,512.918945 
	C342.423431,512.918945 171.846832,512.918945 1.135117,512.918945 
	C1.135117,342.333405 1.135117,171.666718 1.128342,1.000018 
	C82.771034,1.000000 164.420502,1.000000 246.835968,1.323642 
	C247.064102,2.282401 246.080551,2.906368 246.064331,3.554539 
	C245.987610,6.620992 245.115875,10.351100 246.517242,12.610579 
	C248.612457,15.988711 252.908722,16.021048 256.212494,13.854962 
	C259.506287,11.695423 259.820282,8.261028 258.246887,4.671124 
	C257.729980,3.491810 257.410004,2.226167 257.000000,1.000000 
M115.500046,321.124420 
	C103.340240,321.124420 91.180443,321.120483 79.020638,321.125977 
	C72.065727,321.129089 71.343559,321.844849 71.342819,328.834564 
	C71.337845,375.808289 71.338402,422.781982 71.342148,469.755707 
	C71.342728,477.093048 71.534637,477.279541 78.952965,477.279785 
	C144.582916,477.282074 210.212860,477.281921 275.842804,477.280029 
	C283.324310,477.279816 283.484589,477.131348 283.485352,469.830231 
	C283.490265,422.856506 283.490540,375.882782 283.485382,328.909058 
	C283.484589,321.609528 282.969818,321.125244 275.410980,321.125061 
	C222.440674,321.123840 169.470367,321.124420 115.500046,321.124420 
M239.853714,235.280045 
	C244.171692,226.315262 246.741531,216.847931 246.832336,206.917130 
	C247.030334,185.263214 246.980850,163.605972 246.872864,141.950897 
	C246.833405,134.042465 244.107956,126.965874 239.016708,120.865105 
	C234.941559,115.981926 230.511505,115.154327 225.516342,118.989487 
	C197.808472,140.262894 157.428055,140.442780 129.295380,118.881134 
	C124.530228,115.228996 120.044914,115.973885 116.137871,120.563332 
	C110.758057,126.882774 108.020660,134.235245 108.013893,142.547195 
	C107.996674,163.703201 107.927109,184.859894 108.090126,206.014694 
	C108.124481,210.472504 108.674973,215.010422 109.649338,219.363297 
	C116.213203,248.686523 139.428772,269.932068 168.875092,273.803284 
	C197.583984,277.577545 225.427170,262.643402 239.853714,235.280045 
M358.638458,280.463715 
	C359.583740,286.357483 359.845154,292.462189 361.587402,298.110077 
	C371.465942,330.133301 403.926086,348.854645 437.019104,341.964966 
	C469.079590,335.290222 491.002747,304.277344 487.171661,271.018219 
	C483.284637,237.273529 451.970276,211.284149 418.897369,214.353912 
	C383.700226,217.620834 359.300568,243.981842 358.638458,280.463715 
M214.695038,114.232506 
	C217.751678,112.227768 220.615952,109.802048 223.902405,108.300171 
	C232.474472,104.382835 241.250504,107.306564 247.663239,115.537361 
	C253.911682,123.557312 256.388367,132.901581 257.266998,142.852219 
	C260.682953,143.284317 263.692841,143.665070 266.741272,144.050690 
	C266.741272,133.240875 267.173615,123.089340 266.558258,113.001724 
	C266.252014,107.982170 264.424622,102.922676 262.555481,98.168167 
	C260.651062,93.323967 257.170746,90.152306 251.342819,89.627960 
	C244.973953,89.054932 242.336121,85.513794 241.917694,78.849487 
	C241.459549,71.552246 239.487534,64.749557 234.941956,58.899681 
	C228.351898,50.418724 219.051651,46.451893 209.030685,44.043827 
	C190.749146,39.650711 172.363663,40.566669 154.061844,43.919617 
	C104.162201,53.061390 81.497810,94.787285 88.601608,144.098083 
	C90.051781,143.913437 91.517799,143.769211 92.968300,143.530640 
	C94.560524,143.268738 96.138435,142.919861 97.615059,142.629990 
	C99.419098,128.849365 101.526253,123.000427 107.306618,115.518143 
	C115.180374,105.326111 125.663216,103.831589 136.117416,111.410645 
	C159.526688,128.381851 189.279144,129.616165 214.695038,114.232506 
M488.697266,124.084389 
	C490.928375,80.602448 453.675812,47.906937 411.166321,56.037670 
	C376.484436,62.671230 353.637604,97.902573 361.083130,133.269302 
	C368.308624,167.590927 403.896393,190.118057 438.039856,182.486710 
	C462.598328,176.997711 485.758514,155.558884 488.697266,124.084389 
M359.067169,429.769501 
	C358.976746,431.099670 358.881409,432.429535 358.796600,433.760071 
	C356.124359,475.684631 391.671967,508.280548 433.345306,502.119476 
	C468.607849,496.906189 493.370178,461.978882 486.752411,426.788696 
	C479.904144,390.373138 443.749969,366.509460 408.252747,375.668121 
	C380.736481,382.767639 364.613525,401.088409 359.067169,429.769501 
M169.500000,502.998627 
	C203.997726,502.998627 238.495438,503.000031 272.993164,502.995911 
	C275.659241,502.995605 278.328369,503.031250 280.990784,502.921051 
	C288.319824,502.617676 295.467865,494.765045 293.476532,487.946106 
	C216.130737,487.946106 138.717316,487.946106 61.324997,487.946106 
	C60.628845,497.096069 66.582802,502.968323 76.506088,502.982391 
	C107.170670,503.025909 137.835358,502.998474 169.500000,502.998627 
M293.363739,346.514832 
	C293.363739,379.242462 293.363739,411.970093 293.363739,444.665833 
	C304.811951,444.665833 315.550140,444.665833 326.469727,444.665833 
	C324.914032,416.919495 323.318665,389.527222 321.863190,362.127502 
	C320.922241,344.413605 311.974365,335.218231 293.364166,333.609070 
	C293.364166,337.596649 293.364166,341.559570 293.363739,346.514832 
M30.502537,407.987915 
	C29.818502,420.199402 29.134468,432.410858 28.444139,444.734680 
	C39.570866,444.734680 50.154053,444.734680 60.950073,444.734680 
	C60.950073,407.619507 60.950073,370.769806 60.950073,333.904999 
	C43.717728,334.729553 33.939091,344.486053 33.108284,361.204590 
	C32.348560,376.492706 31.461626,391.774475 30.502537,407.987915 
M193.052322,282.784210 
	C177.845032,285.539032 162.946777,284.331757 148.741837,278.996674 
	C147.979065,283.764587 147.657745,288.284943 146.430573,292.544373 
	C145.637589,295.296692 146.458481,296.541077 148.155487,298.494415 
	C157.077698,308.764343 167.862961,313.573578 181.568069,311.194550 
	C184.156815,310.745178 186.909515,311.320892 189.549454,311.055054 
	C191.079147,310.901031 192.807877,310.346497 193.975464,309.394104 
	C198.490829,305.710907 202.881638,301.865662 207.161682,297.910736 
	C208.087265,297.055481 208.988663,295.403778 208.825912,294.273834 
	C208.104187,289.263062 206.990860,284.308716 205.993256,279.201111 
	C202.146286,280.270416 198.010254,281.420074 193.052322,282.784210 
M303.902100,503.005096 
	C310.896240,503.004883 317.891937,502.915436 324.883850,503.040405 
	C328.642181,503.107544 329.971771,501.362305 329.683014,497.824463 
	C329.385132,494.174927 329.208069,490.515472 328.985748,486.859863 
	C328.343842,476.304993 327.705688,465.749878 327.072784,455.305908 
	C315.599091,455.305908 304.702362,455.305908 293.498474,455.305908 
	C293.498474,462.892944 293.498474,470.173553 293.498474,477.466980 
	C300.124176,479.172913 304.044830,482.445709 303.826538,487.725037 
	C303.615479,492.829132 302.014221,497.875763 301.012390,503.005005 
	C301.349304,503.005005 302.178314,503.005005 303.902100,503.005096 
M61.341320,460.537872 
	C61.341320,458.786774 61.341320,457.035706 61.341320,455.252258 
	C49.813736,455.252258 38.908520,455.252258 27.814398,455.252258 
	C26.925430,469.765839 26.048504,484.038361 25.179401,498.311340 
	C25.014002,501.027618 25.955299,502.960571 28.990463,502.978241 
	C37.524326,503.027893 46.058662,502.995544 54.849442,502.995544 
	C47.923851,487.947784 49.595032,481.955902 61.341370,477.102325 
	C61.341370,471.813629 61.341370,466.665863 61.341320,460.537872 
M98.008652,168.504486 
	C98.008652,163.410843 98.008652,158.317200 98.008652,153.201828 
	C82.496567,154.099213 71.415726,165.963638 72.137444,180.334991 
	C72.834274,194.210815 84.584824,205.484329 97.647285,204.804962 
	C97.755539,204.497421 97.957718,204.190109 97.958481,203.882309 
	C97.986771,192.422394 97.996452,180.962463 98.008652,168.504486 
M281.985809,185.260239 
	C284.989624,167.975281 274.378601,154.136536 257.185242,153.237579 
	C257.185242,170.453247 257.185242,187.656174 257.185242,204.854095 
	C268.488159,205.202545 277.314362,198.420181 281.985809,185.260239 
M59.213715,277.705139 
	C61.713684,277.394684 65.267738,277.984375 66.475296,276.570282 
	C68.462219,274.243530 68.929565,270.619141 70.226059,267.018219 
	C73.762482,266.740295 79.358109,268.321838 79.927696,261.413544 
	C80.067650,259.716125 79.937263,257.049530 78.916122,256.382538 
	C75.973801,254.460754 72.512993,253.332779 69.074341,251.812759 
	C68.909744,245.906265 66.573006,242.027161 62.340195,242.163696 
	C55.332710,242.389740 55.623848,247.842163 55.997898,252.735382 
	C47.272564,253.357330 45.239567,254.566544 45.069649,259.408936 
	C45.010239,261.102020 45.159142,263.756836 46.168541,264.352142 
	C49.069263,266.062927 52.458313,266.945709 54.857269,267.852234 
	C56.171871,271.060822 57.407562,274.076813 59.213715,277.705139 
M306.764679,52.042343 
	C308.251129,51.475739 309.737579,50.909134 312.365601,49.907387 
	C301.220276,47.341476 297.187775,43.576622 292.073578,31.897449 
	C289.540802,35.613789 287.544586,39.737709 284.457916,42.740833 
	C281.277832,45.834877 277.035400,47.837044 273.527618,50.139797 
	C277.071442,52.392471 281.495789,54.300049 284.657410,57.467850 
	C287.849579,60.666275 289.789642,65.114357 292.531006,69.411171 
	C293.941772,60.749607 298.813721,55.591030 306.764679,52.042343 
M346.893463,225.706131 
	C346.890442,224.933899 347.041229,223.524658 346.862183,223.481430 
	C340.303894,221.897980 337.030334,217.079056 335.412170,212.419693 
	C331.077179,216.587433 326.591492,220.900070 322.319641,225.007111 
	C328.035065,226.474106 332.472931,230.936172 334.613037,238.941971 
	C337.041046,232.120941 339.897095,227.362335 346.893463,225.706131 
M34.996387,307.300415 
	C34.842091,302.375702 31.444811,298.653259 27.444387,299.025543 
	C22.622890,299.474213 20.171946,303.181000 21.007387,308.519348 
	C21.557074,312.031769 24.072109,313.614807 27.023722,313.821655 
	C30.917887,314.094574 33.839020,312.119415 34.996387,307.300415 
M212.363205,306.685516 
	C210.990814,307.922760 209.618439,309.160004 207.756042,310.839020 
	C213.546982,310.839020 218.350281,310.839020 223.757568,310.839020 
	C221.158951,308.877258 219.235107,307.070740 216.984131,305.885468 
	C215.965179,305.348938 214.296326,306.046631 212.363205,306.685516 
M134.170868,308.655182 
	C133.296600,309.219208 132.422333,309.783234 130.722183,310.880066 
	C136.655533,310.880066 141.458542,310.880066 147.309006,310.880066 
	C144.294342,308.286072 142.013992,306.323914 139.746567,304.372894 
	C137.880020,305.810974 136.319641,307.013153 134.170868,308.655182 
z"/>
<path fill="#FC657E" opacity="1.000000" stroke="none" 
	d="
M256.545898,1.000000 
	C257.410004,2.226167 257.729980,3.491810 258.246887,4.671124 
	C259.820282,8.261028 259.506287,11.695423 256.212494,13.854962 
	C252.908722,16.021048 248.612457,15.988711 246.517242,12.610579 
	C245.115875,10.351100 245.987610,6.620992 246.064331,3.554539 
	C246.080551,2.906368 247.064102,2.282401 247.300980,1.323642 
	C250.030594,1.000000 253.061203,1.000000 256.545898,1.000000 
z"/>
<path fill="#ECF3FB" opacity="1.000000" stroke="none" 
	d="
M116.000046,321.124420 
	C169.470367,321.124420 222.440674,321.123840 275.410980,321.125061 
	C282.969818,321.125244 283.484589,321.609528 283.485382,328.909058 
	C283.490540,375.882782 283.490265,422.856506 283.485352,469.830231 
	C283.484589,477.131348 283.324310,477.279816 275.842804,477.280029 
	C210.212860,477.281921 144.582916,477.282074 78.952965,477.279785 
	C71.534637,477.279541 71.342728,477.093048 71.342148,469.755707 
	C71.338402,422.781982 71.337845,375.808289 71.342819,328.834564 
	C71.343559,321.844849 72.065727,321.129089 79.020638,321.125977 
	C91.180443,321.120483 103.340240,321.124420 116.000046,321.124420 
M195.954559,404.785187 
	C194.049606,403.523224 192.191025,401.262543 190.231705,401.171600 
	C181.612228,400.771515 172.963379,401.037231 164.325775,400.978119 
	C160.774506,400.953827 158.272659,402.481049 158.314590,406.056641 
	C158.356552,409.636475 160.927979,411.055756 164.450150,411.026123 
	C172.921448,410.954803 181.393845,410.984131 189.865662,411.011902 
	C193.560974,411.024017 195.971695,409.666046 195.954559,404.785187 
z"/>
<path fill="#F8CFB3" opacity="1.000000" stroke="none" 
	d="
M239.668213,235.605896 
	C225.427170,262.643402 197.583984,277.577545 168.875092,273.803284 
	C139.428772,269.932068 116.213203,248.686523 109.649338,219.363297 
	C108.674973,215.010422 108.124481,210.472504 108.090126,206.014694 
	C107.927109,184.859894 107.996674,163.703201 108.013893,142.547195 
	C108.020660,134.235245 110.758057,126.882774 116.137871,120.563332 
	C120.044914,115.973885 124.530228,115.228996 129.295380,118.881134 
	C157.428055,140.442780 197.808472,140.262894 225.516342,118.989487 
	C230.511505,115.154327 234.941559,115.981926 239.016708,120.865105 
	C244.107956,126.965874 246.833405,134.042465 246.872864,141.950897 
	C246.980850,163.605972 247.030334,185.263214 246.832336,206.917130 
	C246.741531,216.847931 244.171692,226.315262 239.668213,235.605896 
M188.966949,225.792160 
	C179.160095,229.702057 170.127716,229.022415 162.228821,221.354446 
	C159.825180,219.021088 157.117554,218.740067 154.751633,221.204651 
	C152.539200,223.509354 152.858704,226.291840 155.146881,228.281326 
	C158.003677,230.765259 161.007172,233.295761 164.369888,234.944046 
	C176.799118,241.036469 193.582062,238.011185 201.724625,228.629868 
	C203.851959,226.178879 204.670059,223.595795 202.215088,221.120560 
	C199.814316,218.700012 197.193359,219.176208 194.712631,221.418015 
	C193.119415,222.857773 191.325241,224.075195 188.966949,225.792160 
M138.979050,190.612427 
	C143.029114,193.304764 147.158630,193.410919 151.021225,190.458511 
	C154.324249,187.933807 155.731628,184.368591 154.619171,180.274567 
	C153.481354,176.087372 150.740799,173.360443 146.237686,172.842026 
	C141.818512,172.333252 138.290192,173.968872 136.223648,177.884155 
	C133.845291,182.390182 134.716568,186.562729 138.979050,190.612427 
M205.475571,190.048325 
	C211.339844,195.467545 220.796860,191.829758 221.964447,184.089798 
	C222.639053,179.617874 220.233597,175.337692 216.124084,173.537445 
	C212.080215,171.765945 207.130554,172.951080 204.389252,176.347198 
	C201.177078,180.326660 201.342392,184.328705 205.475571,190.048325 
z"/>
<path fill="#6FD4F7" opacity="1.000000" stroke="none" 
	d="
M358.624023,279.975830 
	C359.300568,243.981842 383.700226,217.620834 418.897369,214.353912 
	C451.970276,211.284149 483.284637,237.273529 487.171661,271.018219 
	C491.002747,304.277344 469.079590,335.290222 437.019104,341.964966 
	C403.926086,348.854645 371.465942,330.133301 361.587402,298.110077 
	C359.845154,292.462189 359.583740,286.357483 358.624023,279.975830 
M452.074646,276.404785 
	C453.780975,277.712982 454.377075,278.839691 452.368103,280.666260 
	C448.682953,284.016815 445.251648,287.649597 441.762024,291.211182 
	C439.471832,293.548584 438.895325,296.230560 441.347595,298.681793 
	C443.797760,301.130920 446.523682,300.562592 448.840424,298.290070 
	C454.061066,293.169159 459.238312,288.002777 464.363007,282.785919 
	C467.023468,280.077698 467.056519,277.229370 464.322815,274.485413 
	C459.161499,269.304626 454.000488,264.123444 448.814789,258.967133 
	C446.484589,256.650116 443.838745,256.041290 441.370605,258.529053 
	C438.941895,260.977051 439.437988,263.669067 441.721008,266.018768 
	C444.963562,269.356018 448.286346,272.615265 452.074646,276.404785 
M400.463989,287.038208 
	C397.510376,284.437653 394.556793,281.837067 391.279633,278.951599 
	C396.369110,274.012482 400.589111,270.009705 404.696869,265.894897 
	C407.044464,263.543274 407.327637,260.790985 404.883759,258.418732 
	C402.605652,256.207397 400.007843,256.556732 397.790894,258.746429 
	C392.349731,264.120728 386.754883,269.366699 381.707703,275.092590 
	C380.522705,276.436951 380.232086,280.388367 381.289764,281.584930 
	C386.672729,287.674896 392.474884,293.431305 398.530731,298.857544 
	C399.701141,299.906281 403.632324,299.800934 404.545349,298.734436 
	C405.755859,297.320404 405.922424,294.222382 405.288330,292.249542 
	C404.696106,290.406921 402.471344,289.089020 400.463989,287.038208 
M421.349609,266.839081 
	C418.498322,276.741394 415.688354,286.655853 412.772247,296.539062 
	C411.814301,299.785645 412.553436,302.286285 415.786743,303.383972 
	C419.109436,304.512085 421.252808,302.764038 422.192078,299.612793 
	C426.084747,286.553192 429.948059,273.484558 433.738525,260.395050 
	C434.575745,257.503876 433.806396,254.959351 430.723480,253.930588 
	C427.463867,252.842880 425.182343,254.276642 424.138489,257.468323 
	C423.209106,260.309937 422.481018,263.217377 421.349609,266.839081 
z"/>
<path fill="#5A5C5F" opacity="1.000000" stroke="none" 
	d="
M214.394196,114.439026 
	C189.279144,129.616165 159.526688,128.381851 136.117416,111.410645 
	C125.663216,103.831589 115.180374,105.326111 107.306618,115.518143 
	C101.526253,123.000427 99.419098,128.849365 97.615059,142.629990 
	C96.138435,142.919861 94.560524,143.268738 92.968300,143.530640 
	C91.517799,143.769211 90.051781,143.913437 88.601608,144.098083 
	C81.497810,94.787285 104.162201,53.061390 154.061844,43.919617 
	C172.363663,40.566669 190.749146,39.650711 209.030685,44.043827 
	C219.051651,46.451893 228.351898,50.418724 234.941956,58.899681 
	C239.487534,64.749557 241.459549,71.552246 241.917694,78.849487 
	C242.336121,85.513794 244.973953,89.054932 251.342819,89.627960 
	C257.170746,90.152306 260.651062,93.323967 262.555481,98.168167 
	C264.424622,102.922676 266.252014,107.982170 266.558258,113.001724 
	C267.173615,123.089340 266.741272,133.240875 266.741272,144.050690 
	C263.692841,143.665070 260.682953,143.284317 257.266998,142.852219 
	C256.388367,132.901581 253.911682,123.557312 247.663239,115.537361 
	C241.250504,107.306564 232.474472,104.382835 223.902405,108.300171 
	C220.615952,109.802048 217.751678,112.227768 214.394196,114.439026 
z"/>
<path fill="#F58DA4" opacity="1.000000" stroke="none" 
	d="
M488.646790,124.536270 
	C485.758514,155.558884 462.598328,176.997711 438.039856,182.486710 
	C403.896393,190.118057 368.308624,167.590927 361.083130,133.269302 
	C353.637604,97.902573 376.484436,62.671230 411.166321,56.037670 
	C453.675812,47.906937 490.928375,80.602448 488.646790,124.536270 
M465.081451,86.018204 
	C464.659760,81.017532 461.593903,78.326096 456.926971,78.286201 
	C435.808777,78.105621 414.687531,78.111763 393.569000,78.268478 
	C388.346313,78.307236 385.347321,81.644928 385.149414,86.870499 
	C384.985901,91.188026 384.968262,95.523247 385.156525,99.838829 
	C385.389862,105.187500 388.352173,108.124535 393.714966,108.145088 
	C414.668427,108.225410 435.622589,108.226250 456.576050,108.146225 
	C462.201447,108.124748 464.966156,105.153473 465.094452,99.385704 
	C465.186890,95.230278 465.112579,91.071129 465.081451,86.018204 
M386.581055,156.687454 
	C389.006622,157.851532 391.340729,159.677979 393.878662,160.028519 
	C397.955383,160.591629 402.168427,160.250381 406.321075,160.161407 
	C412.263550,160.034073 415.034729,157.229462 415.093170,151.149384 
	C415.176178,142.508698 415.180237,133.865891 415.088440,125.225372 
	C415.028534,119.587540 412.184235,116.522850 406.642090,116.241875 
	C402.332703,116.023384 397.994232,116.022408 393.685059,116.243492 
	C388.190735,116.525383 385.284088,119.642258 385.138763,125.247330 
	C385.009583,130.229492 384.975189,135.222183 385.145142,140.201813 
	C385.325043,145.472321 385.795532,150.732910 386.581055,156.687454 
M461.627136,153.155975 
	C459.668030,152.160919 457.738586,150.382401 455.744690,150.306976 
	C447.293488,149.987289 438.823120,150.153717 430.359863,150.184387 
	C426.939667,150.196777 424.277954,151.667099 424.302887,155.306992 
	C424.327911,158.964798 426.930420,160.248611 430.435822,160.214462 
	C438.898376,160.132019 447.362549,160.145172 455.825470,160.203979 
	C460.141663,160.233978 462.463776,158.510834 461.627136,153.155975 
M430.124115,133.176254 
	C426.684448,133.342911 424.094055,134.914154 424.302338,138.528046 
	C424.532928,142.528366 427.615356,143.276611 431.152344,143.225510 
	C439.108765,143.110580 447.068390,143.138580 455.025787,143.211044 
	C458.658722,143.244141 462.041321,142.768677 461.960968,138.215439 
	C461.882782,133.782913 458.486267,133.155685 454.890503,133.162994 
	C446.932465,133.179169 438.974365,133.169357 430.124115,133.176254 
M451.404236,126.189941 
	C452.737000,126.189201 454.071655,126.141960 455.402130,126.196724 
	C458.948395,126.342674 461.986328,125.511230 461.973236,121.289482 
	C461.960449,117.156303 458.925690,116.176735 455.417511,116.172852 
	C447.087830,116.163635 438.758087,116.158478 430.428467,116.181076 
	C427.001923,116.190369 424.303772,117.611397 424.304779,121.273964 
	C424.305817,124.955025 426.915466,126.259834 430.437042,126.213440 
	C437.099640,126.125671 443.764191,126.189270 451.404236,126.189941 
z"/>
<path fill="#B296F5" opacity="1.000000" stroke="none" 
	d="
M359.113464,429.332397 
	C364.613525,401.088409 380.736481,382.767639 408.252747,375.668121 
	C443.749969,366.509460 479.904144,390.373138 486.752411,426.788696 
	C493.370178,461.978882 468.607849,496.906189 433.345306,502.119476 
	C391.671967,508.280548 356.124359,475.684631 358.796600,433.760071 
	C358.881409,432.429535 358.976746,431.099670 359.113464,429.332397 
M422.499878,484.335358 
	C431.989929,484.333832 441.480591,484.399780 450.969788,484.309509 
	C458.580139,484.237152 462.052094,480.818909 462.067688,473.354767 
	C462.116333,450.045990 462.113403,426.736969 462.069061,403.428192 
	C462.055450,396.272919 458.538361,392.433044 451.480011,392.378571 
	C432.667542,392.233490 413.852661,392.243317 395.039917,392.366516 
	C387.738495,392.414307 384.112518,396.278168 384.096191,403.672729 
	C384.045013,426.815033 384.043091,449.957550 384.096985,473.099823 
	C384.114838,480.766937 387.696259,484.245239 395.527252,484.315765 
	C404.184143,484.393738 412.842255,484.334778 422.499878,484.335358 
z"/>
<path fill="#C7D7E5" opacity="1.000000" stroke="none" 
	d="
M169.000000,502.998627 
	C137.835358,502.998474 107.170670,503.025909 76.506088,502.982391 
	C66.582802,502.968323 60.628845,497.096069 61.324997,487.946106 
	C138.717316,487.946106 216.130737,487.946106 293.476532,487.946106 
	C295.467865,494.765045 288.319824,502.617676 280.990784,502.921051 
	C278.328369,503.031250 275.659241,502.995605 272.993164,502.995911 
	C238.495438,503.000031 203.997726,502.998627 169.000000,502.998627 
z"/>
<path fill="#396EBB" opacity="1.000000" stroke="none" 
	d="
M293.363953,346.018646 
	C293.364166,341.559570 293.364166,337.596649 293.364166,333.609070 
	C311.974365,335.218231 320.922241,344.413605 321.863190,362.127502 
	C323.318665,389.527222 324.914032,416.919495 326.469727,444.665833 
	C315.550140,444.665833 304.811951,444.665833 293.363739,444.665833 
	C293.363739,411.970093 293.363739,379.242462 293.363953,346.018646 
z"/>
<path fill="#3A6FBE" opacity="1.000000" stroke="none" 
	d="
M30.566643,407.523499 
	C31.461626,391.774475 32.348560,376.492706 33.108284,361.204590 
	C33.939091,344.486053 43.717728,334.729553 60.950073,333.904999 
	C60.950073,370.769806 60.950073,407.619507 60.950073,444.734680 
	C50.154053,444.734680 39.570866,444.734680 28.444139,444.734680 
	C29.134468,432.410858 29.818502,420.199402 30.566643,407.523499 
z"/>
<path fill="#F6CEB2" opacity="1.000000" stroke="none" 
	d="
M193.463272,282.676971 
	C198.010254,281.420074 202.146286,280.270416 205.993256,279.201111 
	C206.990860,284.308716 208.104187,289.263062 208.825912,294.273834 
	C208.988663,295.403778 208.087265,297.055481 207.161682,297.910736 
	C202.881638,301.865662 198.490829,305.710907 193.975464,309.394104 
	C192.807877,310.346497 191.079147,310.901031 189.549454,311.055054 
	C186.909515,311.320892 184.156815,310.745178 181.568069,311.194550 
	C167.862961,313.573578 157.077698,308.764343 148.155487,298.494415 
	C146.458481,296.541077 145.637589,295.296692 146.430573,292.544373 
	C147.657745,288.284943 147.979065,283.764587 148.741837,278.996674 
	C162.946777,284.331757 177.845032,285.539032 193.463272,282.676971 
z"/>
<path fill="#F5CDB1" opacity="1.000000" stroke="none" 
	d="
M303.454712,503.005066 
	C302.178314,503.005005 301.349304,503.005005 301.012390,503.005005 
	C302.014221,497.875763 303.615479,492.829132 303.826538,487.725037 
	C304.044830,482.445709 300.124176,479.172913 293.498474,477.466980 
	C293.498474,470.173553 293.498474,462.892944 293.498474,455.305908 
	C304.702362,455.305908 315.599091,455.305908 327.072784,455.305908 
	C327.705688,465.749878 328.343842,476.304993 328.985748,486.859863 
	C329.208069,490.515472 329.385132,494.174927 329.683014,497.824463 
	C329.971771,501.362305 328.642181,503.107544 324.883850,503.040405 
	C317.891937,502.915436 310.896240,503.004883 303.454712,503.005066 
z"/>
<path fill="#F7CEB3" opacity="1.000000" stroke="none" 
	d="
M61.341347,461.027985 
	C61.341370,466.665863 61.341370,471.813629 61.341370,477.102325 
	C49.595032,481.955902 47.923851,487.947784 54.849442,502.995544 
	C46.058662,502.995544 37.524326,503.027893 28.990463,502.978241 
	C25.955299,502.960571 25.014002,501.027618 25.179401,498.311340 
	C26.048504,484.038361 26.925430,469.765839 27.814398,455.252258 
	C38.908520,455.252258 49.813736,455.252258 61.341320,455.252258 
	C61.341320,457.035706 61.341320,458.786774 61.341347,461.027985 
z"/>
<path fill="#F6CEB2" opacity="1.000000" stroke="none" 
	d="
M98.008652,169.003510 
	C97.996452,180.962463 97.986771,192.422394 97.958481,203.882309 
	C97.957718,204.190109 97.755539,204.497421 97.643768,204.803711 
	C84.584824,205.484329 72.834274,194.210815 72.137444,180.334991 
	C71.415726,165.963638 82.496567,154.099213 98.008652,153.201828 
	C98.008652,158.317200 98.008652,163.410843 98.008652,169.003510 
z"/>
<path fill="#F7CEB2" opacity="1.000000" stroke="none" 
	d="
M281.911560,185.658691 
	C277.314362,198.420181 268.488159,205.202545 257.185242,204.854095 
	C257.185242,187.656174 257.185242,170.453247 257.185242,153.237579 
	C274.378601,154.136536 284.989624,167.975281 281.911560,185.658691 
z"/>
<path fill="#F5C84C" opacity="1.000000" stroke="none" 
	d="
M58.928482,277.398987 
	C57.407562,274.076813 56.171871,271.060822 54.857269,267.852234 
	C52.458313,266.945709 49.069263,266.062927 46.168541,264.352142 
	C45.159142,263.756836 45.010239,261.102020 45.069649,259.408936 
	C45.239567,254.566544 47.272564,253.357330 55.997898,252.735382 
	C55.623848,247.842163 55.332710,242.389740 62.340195,242.163696 
	C66.573006,242.027161 68.909744,245.906265 69.074341,251.812759 
	C72.512993,253.332779 75.973801,254.460754 78.916122,256.382538 
	C79.937263,257.049530 80.067650,259.716125 79.927696,261.413544 
	C79.358109,268.321838 73.762482,266.740295 70.226059,267.018219 
	C68.929565,270.619141 68.462219,274.243530 66.475296,276.570282 
	C65.267738,277.984375 61.713684,277.394684 58.928482,277.398987 
z"/>
<path fill="#70D7F9" opacity="1.000000" stroke="none" 
	d="
M306.420990,52.222229 
	C298.813721,55.591030 293.941772,60.749607 292.531006,69.411171 
	C289.789642,65.114357 287.849579,60.666275 284.657410,57.467850 
	C281.495789,54.300049 277.071442,52.392471 273.527618,50.139797 
	C277.035400,47.837044 281.277832,45.834877 284.457916,42.740833 
	C287.544586,39.737709 289.540802,35.613789 292.073578,31.897449 
	C297.187775,43.576622 301.220276,47.341476 312.365601,49.907387 
	C309.737579,50.909134 308.251129,51.475739 306.420990,52.222229 
z"/>
<path fill="#F5C84C" opacity="1.000000" stroke="none" 
	d="
M346.548706,225.856384 
	C339.897095,227.362335 337.041046,232.120941 334.613037,238.941971 
	C332.472931,230.936172 328.035065,226.474106 322.319641,225.007111 
	C326.591492,220.900070 331.077179,216.587433 335.412170,212.419693 
	C337.030334,217.079056 340.303894,221.897980 346.862183,223.481430 
	C347.041229,223.524658 346.890442,224.933899 346.548706,225.856384 
z"/>
<path fill="#87D147" opacity="1.000000" stroke="none" 
	d="
M34.993538,307.707642 
	C33.839020,312.119415 30.917887,314.094574 27.023722,313.821655 
	C24.072109,313.614807 21.557074,312.031769 21.007387,308.519348 
	C20.171946,303.181000 22.622890,299.474213 27.444387,299.025543 
	C31.444811,298.653259 34.842091,302.375702 34.993538,307.707642 
z"/>
<path fill="#4D87CE" opacity="1.000000" stroke="none" 
	d="
M212.642761,306.434967 
	C214.296326,306.046631 215.965179,305.348938 216.984131,305.885468 
	C219.235107,307.070740 221.158951,308.877258 223.757568,310.839020 
	C218.350281,310.839020 213.546982,310.839020 207.756042,310.839020 
	C209.618439,309.160004 210.990814,307.922760 212.642761,306.434967 
z"/>
<path fill="#4E89D0" opacity="1.000000" stroke="none" 
	d="
M134.465057,308.435272 
	C136.319641,307.013153 137.880020,305.810974 139.746567,304.372894 
	C142.013992,306.323914 144.294342,308.286072 147.309006,310.880066 
	C141.458542,310.880066 136.655533,310.880066 130.722183,310.880066 
	C132.422333,309.783234 133.296600,309.219208 134.465057,308.435272 
z"/>
<path fill="#030303" opacity="1.000000" stroke="none" 
	d="
M195.997971,405.188782 
	C195.971695,409.666046 193.560974,411.024017 189.865662,411.011902 
	C181.393845,410.984131 172.921448,410.954803 164.450150,411.026123 
	C160.927979,411.055756 158.356552,409.636475 158.314590,406.056641 
	C158.272659,402.481049 160.774506,400.953827 164.325775,400.978119 
	C172.963379,401.037231 181.612228,400.771515 190.231705,401.171600 
	C192.191025,401.262543 194.049606,403.523224 195.997971,405.188782 
z"/>
<path fill="#080606" opacity="1.000000" stroke="none" 
	d="
M189.294052,225.592224 
	C191.325241,224.075195 193.119415,222.857773 194.712631,221.418015 
	C197.193359,219.176208 199.814316,218.700012 202.215088,221.120560 
	C204.670059,223.595795 203.851959,226.178879 201.724625,228.629868 
	C193.582062,238.011185 176.799118,241.036469 164.369888,234.944046 
	C161.007172,233.295761 158.003677,230.765259 155.146881,228.281326 
	C152.858704,226.291840 152.539200,223.509354 154.751633,221.204651 
	C157.117554,218.740067 159.825180,219.021088 162.228821,221.354446 
	C170.127716,229.022415 179.160095,229.702057 189.294052,225.592224 
z"/>
<path fill="#060504" opacity="1.000000" stroke="none" 
	d="
M138.692596,190.361282 
	C134.716568,186.562729 133.845291,182.390182 136.223648,177.884155 
	C138.290192,173.968872 141.818512,172.333252 146.237686,172.842026 
	C150.740799,173.360443 153.481354,176.087372 154.619171,180.274567 
	C155.731628,184.368591 154.324249,187.933807 151.021225,190.458511 
	C147.158630,193.410919 143.029114,193.304764 138.692596,190.361282 
z"/>
<path fill="#060504" opacity="1.000000" stroke="none" 
	d="
M205.204666,189.788391 
	C201.342392,184.328705 201.177078,180.326660 204.389252,176.347198 
	C207.130554,172.951080 212.080215,171.765945 216.124084,173.537445 
	C220.233597,175.337692 222.639053,179.617874 221.964447,184.089798 
	C220.796860,191.829758 211.339844,195.467545 205.204666,189.788391 
z"/>
<path fill="#040809" opacity="1.000000" stroke="none" 
	d="
M451.824768,276.156311 
	C448.286346,272.615265 444.963562,269.356018 441.721008,266.018768 
	C439.437988,263.669067 438.941895,260.977051 441.370605,258.529053 
	C443.838745,256.041290 446.484589,256.650116 448.814789,258.967133 
	C454.000488,264.123444 459.161499,269.304626 464.322815,274.485413 
	C467.056519,277.229370 467.023468,280.077698 464.363007,282.785919 
	C459.238312,288.002777 454.061066,293.169159 448.840424,298.290070 
	C446.523682,300.562592 443.797760,301.130920 441.347595,298.681793 
	C438.895325,296.230560 439.471832,293.548584 441.762024,291.211182 
	C445.251648,287.649597 448.682953,284.016815 452.368103,280.666260 
	C454.377075,278.839691 453.780975,277.712982 451.824768,276.156311 
z"/>
<path fill="#020405" opacity="1.000000" stroke="none" 
	d="
M400.714569,287.289185 
	C402.471344,289.089020 404.696106,290.406921 405.288330,292.249542 
	C405.922424,294.222382 405.755859,297.320404 404.545349,298.734436 
	C403.632324,299.800934 399.701141,299.906281 398.530731,298.857544 
	C392.474884,293.431305 386.672729,287.674896 381.289764,281.584930 
	C380.232086,280.388367 380.522705,276.436951 381.707703,275.092590 
	C386.754883,269.366699 392.349731,264.120728 397.790894,258.746429 
	C400.007843,256.556732 402.605652,256.207397 404.883759,258.418732 
	C407.327637,260.790985 407.044464,263.543274 404.696869,265.894897 
	C400.589111,270.009705 396.369110,274.012482 391.279633,278.951599 
	C394.556793,281.837067 397.510376,284.437653 400.714569,287.289185 
z"/>
<path fill="#030607" opacity="1.000000" stroke="none" 
	d="
M421.506836,266.467407 
	C422.481018,263.217377 423.209106,260.309937 424.138489,257.468323 
	C425.182343,254.276642 427.463867,252.842880 430.723480,253.930588 
	C433.806396,254.959351 434.575745,257.503876 433.738525,260.395050 
	C429.948059,273.484558 426.084747,286.553192 422.192078,299.612793 
	C421.252808,302.764038 419.109436,304.512085 415.786743,303.383972 
	C412.553436,302.286285 411.814301,299.785645 412.772247,296.539062 
	C415.688354,286.655853 418.498322,276.741394 421.506836,266.467407 
z"/>
<path fill="#050405" opacity="1.000000" stroke="none" 
	d="
M465.097046,86.465927 
	C465.112579,91.071129 465.186890,95.230278 465.094452,99.385704 
	C464.966156,105.153473 462.201447,108.124748 456.576050,108.146225 
	C435.622589,108.226250 414.668427,108.225410 393.714966,108.145088 
	C388.352173,108.124535 385.389862,105.187500 385.156525,99.838829 
	C384.968262,95.523247 384.985901,91.188026 385.149414,86.870499 
	C385.347321,81.644928 388.346313,78.307236 393.569000,78.268478 
	C414.687531,78.111763 435.808777,78.105621 456.926971,78.286201 
	C461.593903,78.326096 464.659760,81.017532 465.097046,86.465927 
M397.727386,98.181068 
	C416.791962,98.181068 435.856506,98.181068 454.871429,98.181068 
	C454.871429,94.529282 454.871429,91.592567 454.871429,88.479584 
	C434.920380,88.479584 415.215576,88.479584 394.300629,88.479584 
	C395.217865,92.062622 395.997833,95.109520 397.727386,98.181068 
z"/>
<path fill="#050403" opacity="1.000000" stroke="none" 
	d="
M386.360107,156.342651 
	C385.795532,150.732910 385.325043,145.472321 385.145142,140.201813 
	C384.975189,135.222183 385.009583,130.229492 385.138763,125.247330 
	C385.284088,119.642258 388.190735,116.525383 393.685059,116.243492 
	C397.994232,116.022408 402.332703,116.023384 406.642090,116.241875 
	C412.184235,116.522850 415.028534,119.587540 415.088440,125.225372 
	C415.180237,133.865891 415.176178,142.508698 415.093170,151.149384 
	C415.034729,157.229462 412.263550,160.034073 406.321075,160.161407 
	C402.168427,160.250381 397.955383,160.591629 393.878662,160.028519 
	C391.340729,159.677979 389.006622,157.851532 386.360107,156.342651 
M405.116974,141.471039 
	C405.116974,136.414948 405.116974,131.358856 405.116974,126.496140 
	C401.319336,126.496140 398.401886,126.496140 395.446838,126.496140 
	C395.446838,134.526520 395.446838,142.229462 395.446838,149.976654 
	C398.725433,149.976654 401.662933,149.976654 405.116974,149.976654 
	C405.116974,147.337921 405.116974,144.897171 405.116974,141.471039 
z"/>
<path fill="#080405" opacity="1.000000" stroke="none" 
	d="
M461.770050,153.536041 
	C462.463776,158.510834 460.141663,160.233978 455.825470,160.203979 
	C447.362549,160.145172 438.898376,160.132019 430.435822,160.214462 
	C426.930420,160.248611 424.327911,158.964798 424.302887,155.306992 
	C424.277954,151.667099 426.939667,150.196777 430.359863,150.184387 
	C438.823120,150.153717 447.293488,149.987289 455.744690,150.306976 
	C457.738586,150.382401 459.668030,152.160919 461.770050,153.536041 
z"/>
<path fill="#080405" opacity="1.000000" stroke="none" 
	d="
M430.570190,133.173203 
	C438.974365,133.169357 446.932465,133.179169 454.890503,133.162994 
	C458.486267,133.155685 461.882782,133.782913 461.960968,138.215439 
	C462.041321,142.768677 458.658722,143.244141 455.025787,143.211044 
	C447.068390,143.138580 439.108765,143.110580 431.152344,143.225510 
	C427.615356,143.276611 424.532928,142.528366 424.302338,138.528046 
	C424.094055,134.914154 426.684448,133.342911 430.570190,133.173203 
z"/>
<path fill="#080405" opacity="1.000000" stroke="none" 
	d="
M450.916077,126.189957 
	C443.764191,126.189270 437.099640,126.125671 430.437042,126.213440 
	C426.915466,126.259834 424.305817,124.955025 424.304779,121.273964 
	C424.303772,117.611397 427.001923,116.190369 430.428467,116.181076 
	C438.758087,116.158478 447.087830,116.163635 455.417511,116.172852 
	C458.925690,116.176735 461.960449,117.156303 461.973236,121.289482 
	C461.986328,125.511230 458.948395,126.342674 455.402130,126.196724 
	C454.071655,126.141960 452.737000,126.189201 450.916077,126.189957 
z"/>
<path fill="#030406" opacity="1.000000" stroke="none" 
	d="
M421.999878,484.335388 
	C412.842255,484.334778 404.184143,484.393738 395.527252,484.315765 
	C387.696259,484.245239 384.114838,480.766937 384.096985,473.099823 
	C384.043091,449.957550 384.045013,426.815033 384.096191,403.672729 
	C384.112518,396.278168 387.738495,392.414307 395.039917,392.366516 
	C413.852661,392.243317 432.667542,392.233490 451.480011,392.378571 
	C458.538361,392.433044 462.055450,396.272919 462.069061,403.428192 
	C462.113403,426.736969 462.116333,450.045990 462.067688,473.354767 
	C462.052094,480.818909 458.580139,484.237152 450.969788,484.309509 
	C441.480591,484.399780 431.989929,484.333832 421.999878,484.335388 
M408.513153,429.279175 
	C403.784668,429.279175 399.056183,429.279175 394.471893,429.279175 
	C394.471893,435.822235 394.471893,441.385986 394.471893,446.990112 
	C413.743622,446.990112 432.623474,446.990112 451.684204,446.990112 
	C451.684204,441.032074 451.684204,435.352966 451.684204,429.279510 
	C437.371155,429.279510 423.439728,429.279510 408.513153,429.279175 
M394.085297,416.308502 
	C393.703430,419.893494 396.286560,419.293732 398.367981,419.296326 
	C412.027039,419.313232 425.686066,419.305328 439.345123,419.305481 
	C443.450043,419.305511 447.554962,419.305481 451.857819,419.305481 
	C451.857819,413.428894 451.857819,408.169098 451.857819,402.630798 
	C432.596924,402.630798 413.548431,402.630798 394.082550,402.630798 
	C394.082550,407.077179 394.082550,411.210388 394.085297,416.308502 
M428.499939,474.305542 
	C436.249695,474.305542 443.999481,474.305542 451.805359,474.305542 
	C451.805359,468.324951 451.805359,463.074768 451.805359,457.669739 
	C432.487335,457.669739 413.443695,457.669739 394.366333,457.669739 
	C394.366333,463.292877 394.366333,468.553650 394.366333,474.305786 
	C405.595856,474.305786 416.547882,474.305786 428.499939,474.305542 
z"/>
<path fill="#6DD0F2" opacity="1.000000" stroke="none" 
	d="
M397.252625,98.168747 
	C395.997833,95.109520 395.217865,92.062622 394.300629,88.479584 
	C415.215576,88.479584 434.920380,88.479584 454.871429,88.479584 
	C454.871429,91.592567 454.871429,94.529282 454.871429,98.181068 
	C435.856506,98.181068 416.791962,98.181068 397.252625,98.168747 
z"/>
<path fill="#EEC24A" opacity="1.000000" stroke="none" 
	d="
M405.116974,141.963730 
	C405.116974,144.897171 405.116974,147.337921 405.116974,149.976654 
	C401.662933,149.976654 398.725433,149.976654 395.446838,149.976654 
	C395.446838,142.229462 395.446838,134.526520 395.446838,126.496140 
	C398.401886,126.496140 401.319336,126.496140 405.116974,126.496140 
	C405.116974,131.358856 405.116974,136.414948 405.116974,141.963730 
z"/>
<path fill="#396DBA" opacity="1.000000" stroke="none" 
	d="
M409.010742,429.279358 
	C423.439728,429.279510 437.371155,429.279510 451.684204,429.279510 
	C451.684204,435.352966 451.684204,441.032074 451.684204,446.990112 
	C432.623474,446.990112 413.743622,446.990112 394.471893,446.990112 
	C394.471893,441.385986 394.471893,435.822235 394.471893,429.279175 
	C399.056183,429.279175 403.784668,429.279175 409.010742,429.279358 
z"/>
<path fill="#508CD5" opacity="1.000000" stroke="none" 
	d="
M394.083923,415.826050 
	C394.082550,411.210388 394.082550,407.077179 394.082550,402.630798 
	C413.548431,402.630798 432.596924,402.630798 451.857819,402.630798 
	C451.857819,408.169098 451.857819,413.428894 451.857819,419.305481 
	C447.554962,419.305481 443.450043,419.305511 439.345123,419.305481 
	C425.686066,419.305328 412.027039,419.313232 398.367981,419.296326 
	C396.286560,419.293732 393.703430,419.893494 394.083923,415.826050 
z"/>
<path fill="#508CD5" opacity="1.000000" stroke="none" 
	d="
M427.999939,474.305664 
	C416.547882,474.305786 405.595856,474.305786 394.366333,474.305786 
	C394.366333,468.553650 394.366333,463.292877 394.366333,457.669739 
	C413.443695,457.669739 432.487335,457.669739 451.805359,457.669739 
	C451.805359,463.074768 451.805359,468.324951 451.805359,474.305542 
	C443.999481,474.305542 436.249695,474.305542 427.999939,474.305664 
z"/>
</svg>